<?xml version="1.0" encoding="utf-8"?>
<!-- Generator: Adobe Illustrator 19.1.0, SVG Export Plug-In . SVG Version: 6.00 Build 0)  -->
<svg version="1.1" id="Calque_1" xmlns="http://www.w3.org/2000/svg" xmlns:xlink="http://www.w3.org/1999/xlink" x="0px" y="0px"
	 viewBox="0 0 113 93.5" style="enable-background:new 0 0 113 93.5;" xml:space="preserve">
<style type="text/css">
	.st0{stroke:#000000;stroke-width:0.75;stroke-miterlimit:10;}
	.st1{stroke:#000000;stroke-width:0.5;stroke-miterlimit:10;}
	.st2{fill:none;stroke:#000000;stroke-width:0.75;stroke-miterlimit:10;}
	.st3{fill:#FFFFFF;stroke:#000000;stroke-width:0.75;stroke-miterlimit:10;}
</style>
<path d="M41.2,19.4C41.2,19.4,41.1,19.4,41.2,19.4c-0.1-0.1,0-0.1,0-0.1C41.2,19.3,41.3,19.3,41.2,19.4
	C41.3,19.4,41.2,19.4,41.2,19.4z M41.2,19.3C41.2,19.3,41.2,19.3,41.2,19.3c-0.1,0.1,0,0.1,0,0.1C41.2,19.4,41.3,19.4,41.2,19.3
	C41.3,19.3,41.2,19.3,41.2,19.3z"/>
<path class="st0" d="M88,0.9c1.7,0,3,1.3,3,3v55.8c0,1.7-1.3,3-3,3H3.7c-1.7,0-3-1.3-3-3V3.8c0-1.6,1.3-3,3-3L88,0.9 M88,0.7H3.7
	c-1.8,0-3.2,1.4-3.2,3.2v55.8c0,1.8,1.4,3.2,3.2,3.2H88c1.8,0,3.2-1.4,3.2-3.2V3.8C91.2,2.1,89.7,0.7,88,0.7L88,0.7z"/>
<rect x="0.8" y="51.8" class="st0" width="89.7" height="0.2"/>
<rect x="45.7" y="62.8" class="st1" width="0.2" height="5"/>
<rect x="29.8" y="67.7" class="st0" width="33.1" height="0.2"/>
<path class="st0" d="M87.5,47.9H4.1v-43h83.4V47.9z M4.2,47.8h83.2V5H4.2V47.8z"/>
<circle cx="46" cy="2.8" r="0.6"/>
<circle class="st2" cx="46" cy="57.3" r="1.4"/>
<rect x="69.7" y="33" class="st3" width="42.8" height="59.8"/>
<rect x="73.7" y="39.5" class="st2" width="34.7" height="46.8"/>
<circle class="st2" cx="91" cy="89.5" r="1.4"/>
<circle cx="91" cy="36.2" r="0.7"/>
</svg>
