<?xml version="1.0" encoding="utf-8"?>
<!-- Generator: Adobe Illustrator 19.1.0, SVG Export Plug-In . SVG Version: 6.00 Build 0)  -->
<svg version="1.1" id="Calque_1" xmlns="http://www.w3.org/2000/svg" xmlns:xlink="http://www.w3.org/1999/xlink" x="0px" y="0px"
	 viewBox="0 0 99.8 128.2" enable-background="new 0 0 99.8 128.2" xml:space="preserve">
<g>
	<path d="M52.2,26c-0.2,4.7-1.4,7.2-2.8,8.5c-1.4,1.3-2.8,2-5.1,1.8c-1.7-0.2-2.4-0.3-4.1-0.9c-1.6-0.6-3.2-1.5-4.7-2.6l-1.6,2.4
		c1.8,1.5,3.9,2.7,6.4,3.8c2.4,1.1,5.4,1.6,8.9,1.6l0.1,0c0,0,0.1,0,0.1,0c0.1,0,0.2,0,0.3,0c0.1,0,0.2,0,0.4,0
		c0.8,0,1.6-0.1,2.4-0.1c0.3,0,0.6,0,0.9-0.1c2.8-0.3,5.2-1,7.1-2c0.1-0.1,0.3-0.1,0.4-0.2c0.1-0.1,0.2-0.1,0.3-0.2
		c0,0,10.7-5.5,4.9-20.9c-1.7-4.4-4.7-7.5-7.8-10.1c-3.1-2.5-6.5-4.4-10.1-5.5C44.6,0.6,41.2,0,38,0c-5.3,0-10.3,1.1-14.9,3.3
		c-4.6,2.2-8.7,5.1-12.1,8.7C7.6,15.6,4.9,19.8,3,24.4c-2,4.7-3,9.5-3,14.5c0,5.7,1,11,2.9,15.6c1.9,4.7,4.6,8.7,8.1,12.1
		c3.5,3.4,7.6,6,12.4,7.8c4.8,1.8,10,2.7,15.6,2.7l0.2-2.4c-5,0-8.9-1.1-11.9-3.2c-3-2.1-5.2-4.8-6.8-8.1c-1.5-3.3-2.5-6.9-3-11
		c-0.5-4.1-0.7-7.9-0.7-11.7c0-1.8,0-3.3,0.1-4.5l0.3-5.8c0.2-3.7,0.7-7.3,1.4-10.7c0.7-3.4,1.8-6.4,3.3-9c1.5-2.6,3.4-4.7,5.9-6.2
		c2.5-1.5,5.6-2.3,9.5-2.3c2.1,0,4.1,0.3,6,0.9c1.9,0.6,3.4,1.7,4.7,3.1c1.3,1.5,2.3,3.4,3,5.9c0.7,2.5,1.1,5.6,1.1,9.5
		C52.2,23.3,52.2,24.7,52.2,26"/>
</g>
<path d="M70.7,70.8c0-2.7-0.2-5.1-0.5-7.3c-0.3-2.1-1-4-1.9-5.5c-0.9-1.5-2.2-2.7-3.9-3.5c-1.7-0.8-3.9-1.2-6.8-1.2
	c-3.7,0-6.8,0.7-9.2,1.9c-2.4,1.3-3.6,3.4-3.6,6.3c0,1.9,0.2,3.8,0.5,5.7s0.5,3.2,0.5,4.1c0,1.6-0.6,2.9-1.7,4
	c-1.1,1.1-2.8,1.6-4.9,1.6c-3.7,0-6-0.7-6.9-2C31.4,73.7,31,72,31,69.8c0-2.5,0.6-4.8,1.7-7.1c1.1-2.3,2.8-4.3,5-6
	c2.2-1.7,5-3.1,8.3-4.1c3.3-1,7.1-1.5,11.4-1.5c5.2,0,9.5,0.7,13,1.9c3.5,1.3,6.3,3,8.5,5.2c2.1,2.2,3.7,4.7,4.6,7.4
	c0.9,2.8,1.4,5.7,1.4,8.7v42.1c0,3.3,0.5,5.5,1.5,6.6c1,1.1,2.5,1.7,4.4,1.7c1.2,0,2.5-0.2,3.9-0.7c1.4-0.4,2.6-1.1,3.9-2l1.4,1.9
	c-1.5,1.1-3.2,2.1-5.2,3c-2,0.8-4.5,1.3-7.4,1.3c-5.4,0-9.3-1.2-11.8-3.5c-2.4-2.3-4.1-5.6-5-9.7L70.7,70.8z"/>
<circle cx="51.9" cy="95.8" r="6.2"/>
</svg>
